<?xml version="1.0" encoding="UTF-8"?>
<svg width="200" height="200" viewBox="0 0 200 200" xmlns="http://www.w3.org/2000/svg">
    <!-- Background Circle -->
    <circle cx="100" cy="100" r="90" fill="#F5F7FA" stroke="#1ABC9C" stroke-width="2"/>
    
    <!-- Dragonfly Body -->
    <path d="M100 40 L100 160" stroke="#1ABC9C" stroke-width="4" fill="none"/>
    
    <!-- Dragonfly Wings -->
    <path d="M100 60 C60 40, 40 80, 60 100" stroke="#1ABC9C" stroke-width="3" fill="none"/>
    <path d="M100 60 C140 40, 160 80, 140 100" stroke="#1ABC9C" stroke-width="3" fill="none"/>
    <path d="M100 100 C60 120, 40 160, 60 140" stroke="#1ABC9C" stroke-width="3" fill="none"/>
    <path d="M100 100 C140 120, 160 160, 140 140" stroke="#1ABC9C" stroke-width="3" fill="none"/>
    
    <!-- Head -->
    <circle cx="100" cy="40" r="8" fill="#1ABC9C"/>
    
    <!-- Eyes -->
    <circle cx="96" cy="36" r="3" fill="white"/>
    <circle cx="104" cy="36" r="3" fill="white"/>
    
    <!-- Anxiety Management Elements -->
    <!-- Breathing Circle -->
    <circle cx="100" cy="100" r="40" stroke="#7E57C2" stroke-width="2" fill="none" opacity="0.6"/>
    <circle cx="100" cy="100" r="30" stroke="#7E57C2" stroke-width="2" fill="none" opacity="0.4"/>
    <circle cx="100" cy="100" r="20" stroke="#7E57C2" stroke-width="2" fill="none" opacity="0.2"/>
    
    <!-- Calming Waves -->
    <path d="M60 140 C80 130, 120 150, 140 140" stroke="#1ABC9C" stroke-width="2" fill="none"/>
    <path d="M60 150 C80 140, 120 160, 140 150" stroke="#1ABC9C" stroke-width="2" fill="none"/>
</svg> 